<?xml version="1.0" encoding="utf-8"?>
<svg viewBox="0 0 300 300" xmlns="http://www.w3.org/2000/svg">
  <g transform="matrix(0.527344, 0, 0, 0.527344, 14.999943, 14.999939)">
    <path d="M 108.4 0 L 131.4 0 L 131.4 22.8 L 152.6 22.8 L 152.6 0 L 175.6 0 L 175.6 69 L 152.6 69 L 152.6 46 L 131.6 46 L 131.6 69 L 108.4 69 M 206 23 L 185.7 23 L 185.7 0 L 249.4 0 L 249.4 23 L 229 23 L 229 69 L 206 69 M 259.5 0 L 283.6 0 L 298.4 24.3 L 313.2 0 L 337.3 0 L 337.3 69 L 314.3 69 L 314.3 34.8 L 298.2 59.6 L 282.1 34.8 L 282.1 69 L 259.5 69 M 348.7 0 L 371.7 0 L 371.7 46.2 L 404.3 46.2 L 404.3 69 L 348.7 69"/>
    <path fill="#e44d26" d="M 107.6 471 L 74.6 100.6 L 437.4 100.6 L 404.4 470.8 L 255.7 512"/>
    <path fill="#f16529" d="M 256 480.5 L 256 131 L 404.3 131 L 376 447"/>
    <path fill="#ebebeb" d="M 142 176.3 L 256 176.3 L 256 221.7 L 191.8 221.7 L 196 268.2 L 256 268.2 L 256 313.5 L 154.4 313.5 M 156.4 336.3 L 202 336.3 L 205.2 372.6 L 256 386.2 L 256 433.6 L 162.8 407.6"/>
    <path fill="#fff" d="M 369.6 176.3 L 255.8 176.3 L 255.8 221.7 L 365.4 221.7 M 361.3 268.2 L 255.8 268.2 L 255.8 313.6 L 311.8 313.6 L 306.5 372.6 L 255.8 386.2 L 255.8 433.4 L 348.8 407.6"/>
  </g>
</svg>