<?xml version="1.0" encoding="utf-8"?>
<svg viewBox="0 0 300 300" xmlns="http://www.w3.org/2000/svg" xmlns:bx="https://boxy-svg.com">
  <g transform="matrix(9.062491, 0, 0, 9.062491, 4.999999, 5.000137)" bx:origin="0.5 0.5">
    <path d="M17.99964,2a14.04114,14.04114,0,0,0-14,14l17.737,3.737Z" fill="#ed6c47"/>
    <path d="M17.99964,2a14.04114,14.04114,0,0,1,14,14l-7,4.75791-7-4.75791Z" fill="#ff8f6b"/>
    <path d="M17.99963,30a14.04114,14.04114,0,0,0,14-14h-28A14.04115,14.04115,0,0,0,17.99963,30Z" fill="#d35230"/>
    <path d="M16.66644,7H7.30511a13.91368,13.91368,0,0,0,.93073,19h8.4306a1.33732,1.33732,0,0,0,1.33338-1.33337V8.33331A1.33727,1.33727,0,0,0,16.66644,7Z" opacity="0.1"/>
    <path d="M15.66644,8H6.53876A13.906,13.906,0,0,0,9.38434,27h6.2821a1.33732,1.33732,0,0,0,1.33338-1.33337V9.33331A1.33727,1.33727,0,0,0,15.66644,8Z" opacity="0.2"/>
    <path d="M15.66644,8H6.53876a13.88991,13.88991,0,0,0,.76635,17h8.36133a1.33732,1.33732,0,0,0,1.33338-1.33337V9.33331A1.33727,1.33727,0,0,0,15.66644,8Z" opacity="0.2"/>
    <path d="M14.66644,8H6.53876a13.88991,13.88991,0,0,0,.76635,17h7.36133a1.33732,1.33732,0,0,0,1.33338-1.33337V9.33331A1.33727,1.33727,0,0,0,14.66644,8Z" opacity="0.2"/>
    <path id="Back_Plate" data-name="Back Plate" d="M1.33333,8H14.66669A1.33334,1.33334,0,0,1,16,9.33334V22.66666A1.33333,1.33333,0,0,1,14.6667,24H1.33334A1.33334,1.33334,0,0,1,0,22.66666V9.33333A1.33333,1.33333,0,0,1,1.33333,8Z" fill="#c43e1c"/>
    <path d="M7.9975,11a4.16771,4.16771,0,0,1,2.75484.8051,2.87757,2.87757,0,0,1,.95562,2.33129,2.72609,2.72609,0,0,1-.47255,1.58724,3.16371,3.16371,0,0,1-1.34417,1.18676,4.56975,4.56975,0,0,1-2.01976.42344H5.96025V21H4V11ZM5.96025,15.68319H7.64746a2.19382,2.19382,0,0,0,1.49118-.44444,1.10662,1.10662,0,0,0,.50407-1.02535q0-1.65921-1.93225-1.65921H5.96025Z" fill="#f9f7f7"/>
    <rect x="0.00003" width="32" height="32" fill="none"/>
  </g>
</svg>